<svg id="Livello_1" data-name="Livello 1" xmlns="http://www.w3.org/2000/svg" width="340" height="72" viewBox="0 0 340 72"><defs><style>.cls-1{fill:#fff;}</style></defs><path class="cls-1" d="M232.75,26.05a.56.56,0,1,0-.6-.51.56.56,0,0,0,.6.51M197.13,7.89a1.63,1.63,0,1,0,1.63-1.63,1.63,1.63,0,0,0-1.63,1.63m10.35,3.5a1.64,1.64,0,1,0,1.63-1.64,1.63,1.63,0,0,0-1.63,1.64m-39,42.69a1.64,1.64,0,1,0,1.64-1.63,1.63,1.63,0,0,0-1.64,1.63m8.05,6.78a1.64,1.64,0,1,0,1.63-1.64,1.64,1.64,0,0,0-1.63,1.64M186.82,64a1.64,1.64,0,1,0,1.64-1.64A1.64,1.64,0,0,0,186.82,64m10.54-.13A1.63,1.63,0,1,0,199,62.2a1.63,1.63,0,0,0-1.63,1.64m10.12-3.21A1.64,1.64,0,1,0,209.12,59a1.64,1.64,0,0,0-1.64,1.64m8.06-6.48a1.64,1.64,0,1,0,1.64-1.64,1.64,1.64,0,0,0-1.64,1.64m-.11-36.3a1.63,1.63,0,1,0,1.63-1.64,1.63,1.63,0,0,0-1.63,1.64M204,13.54a2.08,2.08,0,1,0-2.08,2.09A2.08,2.08,0,0,0,204,13.54m7,4.31a2.08,2.08,0,1,0-2.08,2.09,2.08,2.08,0,0,0,2.08-2.09M216.46,24a2.09,2.09,0,1,0-2.08,2.09A2.08,2.08,0,0,0,216.46,24M201.49.61A.56.56,0,0,0,201,0a.57.57,0,0,0-.61.51.57.57,0,0,0,.51.61.55.55,0,0,0,.6-.51m13.94,5.06a.55.55,0,0,0-.51-.6.56.56,0,0,0-.09,1.11.56.56,0,0,0,.6-.51m10.95,7.86a.56.56,0,0,0-.51-.61.55.55,0,0,0-.6.51.56.56,0,1,0,1.11.1M207.44,6.27a1.06,1.06,0,1,0-1.15,1,1.06,1.06,0,0,0,1.15-1m10.63,5.32a1.06,1.06,0,0,0-1-1.15,1.06,1.06,0,1,0-.18,2.11,1.05,1.05,0,0,0,1.14-1m7.28,7.57a1.06,1.06,0,1,0,1,1.15,1.06,1.06,0,0,0-1-1.15M193.6,3.35a1.07,1.07,0,1,0,1.06,1.06,1.06,1.06,0,0,0-1.06-1.06m-5.16,2.91a1.64,1.64,0,1,0,1.63,1.63,1.63,1.63,0,0,0-1.63-1.63M178.09,9.75a1.64,1.64,0,1,0,1.63,1.64,1.64,1.64,0,0,0-1.63-1.64M162.94,34.43a1.64,1.64,0,1,0,1.63,1.63,1.63,1.63,0,0,0-1.63-1.63m2-9.63a1.64,1.64,0,1,0,1.63,1.64,1.63,1.63,0,0,0-1.63-1.64m5.21-8.59a1.64,1.64,0,1,0,1.63,1.64,1.64,1.64,0,0,0-1.63-1.64M193.6,61.88a2.09,2.09,0,1,0-2.08-2.09,2.09,2.09,0,0,0,2.08,2.09m0-47.48a2.09,2.09,0,1,0-2.08-2.09,2.09,2.09,0,0,0,2.08,2.09m-8.3,1.23a2.09,2.09,0,1,0-2.08-2.09,2.08,2.08,0,0,0,2.08,2.09m-7,4.31a2.09,2.09,0,1,0-2.08-2.09,2.08,2.08,0,0,0,2.08,2.09m-5.52,6.18A2.09,2.09,0,1,0,170.74,24a2.08,2.08,0,0,0,2.08,2.09m-2.27,7.77a2.09,2.09,0,1,0-2.08-2.08,2.08,2.08,0,0,0,2.08,2.08M186.31,1.12a.57.57,0,0,0,.51-.61.57.57,0,0,0-.61-.51.56.56,0,0,0-.5.61.55.55,0,0,0,.6.51M172.37,6.18a.55.55,0,0,0,.51-.6.56.56,0,0,0-.6-.51.55.55,0,0,0-.51.6.56.56,0,0,0,.6.51m60.38,43.71a.56.56,0,1,0-.09-1.11.55.55,0,0,0-.51.6.56.56,0,0,0,.6.51m-6.68,9.3a.58.58,0,0,0,.51-.61.56.56,0,1,0-.51.61M214.92,67a.55.55,0,0,0,.51-.6.56.56,0,1,0-1.11.1.55.55,0,0,0,.6.5M201,72a.56.56,0,0,0,.5-.61.55.55,0,0,0-.6-.51A.56.56,0,0,0,201,72m-14.68,0a.56.56,0,1,0-.1-1.12.56.56,0,0,0-.5.61.55.55,0,0,0,.6.51m-13.94-5.07a.55.55,0,0,0,.51-.6.56.56,0,0,0-.6-.51.55.55,0,0,0-.51.6.56.56,0,0,0,.6.51m-11-7.85a.56.56,0,1,0-.6-.51.56.56,0,0,0,.6.51m-6.88-9.19a.56.56,0,1,0-.09-1.11.56.56,0,0,0,.09,1.11M161.42,14a.56.56,0,1,0-.6-.51.56.56,0,0,0,.6.51m19.49-6.81a1.06,1.06,0,1,0-1.15-1,1.06,1.06,0,0,0,1.15,1m-10.64,5.32a1.06,1.06,0,0,0-.18-2.11,1.06,1.06,0,1,0,.18,2.11m-9.38,7.76a1,1,0,0,0,1.14,1,1.06,1.06,0,1,0-1.14-1m68.65,20.14a1.06,1.06,0,0,0,.18,2.12,1.06,1.06,0,0,0-.18-2.12m-4.17,10.29a1.06,1.06,0,1,0,1.15,1,1.06,1.06,0,0,0-1.15-1m-8.23,8.75a1.06,1.06,0,1,0,1.14,1,1,1,0,0,0-1.14-1M206.3,64.78a1.06,1.06,0,0,0-1,1.15,1.06,1.06,0,1,0,2.11-.18,1.05,1.05,0,0,0-1.14-1m-12.79,1.75a1.06,1.06,0,1,0,.18,2.11,1.06,1.06,0,0,0-.18-2.11M181.2,65.1a1.06,1.06,0,0,0,.18,2.12,1.06,1.06,0,0,0-.18-2.12m-11.11-5.61a1.06,1.06,0,1,0,.18,2.11,1.06,1.06,0,0,0-.18-2.11m-8.25-8.76a1.06,1.06,0,1,0,1.15,1,1.06,1.06,0,0,0-1.15-1m-4.6-20.31a1.06,1.06,0,1,0,1.15,1,1.06,1.06,0,0,0-1.15-1m30.14,28a2.08,2.08,0,1,0-2.08,2.08,2.08,2.08,0,0,0,2.08-2.08m14.36-2.09a2.09,2.09,0,1,0,2.08,2.09,2.08,2.08,0,0,0-2.08-2.09m7.13-4.14A2.09,2.09,0,1,0,211,54.32a2.09,2.09,0,0,0-2.08-2.09M216.43,48a2.08,2.08,0,1,0-2.08,2.09A2.08,2.08,0,0,0,216.43,48m-38.09,4.1a2.09,2.09,0,1,0,2.08,2.09,2.08,2.08,0,0,0-2.08-2.09m-5.52-6.18A2.09,2.09,0,1,0,174.9,48a2.08,2.08,0,0,0-2.08-2.08M256.32,28h12.89V45.2h4.53V28H285.5l1.09-3H257.42Zm-104.51-3h-4.53V45.2h20.66l1.11-3H151.81Zm42.11,0,10.92,20h4.85L198.77,25.05Zm-16.5,20h4.85l10.91-19.95h-4.85Zm65.13-5-19-14.92H219V45h4.53V30l19,15h4.52V25.05h-4.52Zm91.54-6.49H320.21A2.53,2.53,0,0,1,317.45,31v-.56A2.49,2.49,0,0,1,320.16,28H338.9l1.1-3H318.84c-3.81,0-5.75,2.57-5.8,5.12v1.32c0,2.59,2,5.27,5.91,5.27h13.88a2.53,2.53,0,0,1,2.76,2.48v.56a2.49,2.49,0,0,1-2.71,2.43H314.14l-1.1,3H334.2c3.81,0,5.75-2.57,5.8-5.12V38.74c0-2.58-2-5.26-5.91-5.26m-313,0H7.17A2.53,2.53,0,0,1,4.41,31v-.56A2.49,2.49,0,0,1,7.12,28H25.86l1.1-3H5.8C2,25.09.05,27.62,0,30.17v1.32c0,2.59,2,5.27,5.91,5.27H19.79a2.53,2.53,0,0,1,2.76,2.48v.56a2.49,2.49,0,0,1-2.71,2.43H1.1l-1.1,3H21.16c3.81,0,5.75-2.57,5.8-5.12V38.74c0-2.58-2-5.26-5.91-5.26M296.16,45h4.53V25.05h-4.53ZM36.83,28H49.71V45.2h4.53V28H66l1.1-3H37.92Zm62,0,1.1-3H77V45.2H98.86l1.1-3H81.56V36.53H94.43l1.09-2.94h-14V28Zm19.25,14.22h17.24l-1.11,3H113.55V25.05h4.53Z" transform="translate(0 0)"/></svg>